<?xml version="1.0" ?>
<svg height="512.0" inkscape:export-xdpi="96" inkscape:export-ydpi="96" style="fill: none; stroke: none" version="1.1" viewBox="0 0 512.0 512.0" width="512.0" xmlns="http://www.w3.org/2000/svg" xmlns:inkscape="http://www.inkscape.org/namespaces/inkscape" xmlns:sodipodi="http://sodipodi.sourceforge.net/DTD/sodipodi-0.dtd">
   <defs/>
   <sodipodi:namedview bordercolor="#666666" borderlayer="true" inkscape:pagecheckerboard="true" pagecolor="#ffffff"/>
   <g id="g_1" inkscape:groupmode="layer" inkscape:label="ShapeLayer" style="" transform="matrix(1.0, 0.0, 0.0, 1.0, 0.0, 0.0)">
      <g id="g_2" inkscape:label="" style="" transform="matrix(1.0, 0.0, 0.0, 1.0, 0.0, 0.0)">
         <g id="g_3" inkscape:label="" style="" transform="matrix(1.6435424455427141, 0.0, 0.0, 1.6435424455427141, -164.7468660589348, -164.7468660589348)">
            <g id="g_4" inkscape:label="" style="" transform="matrix(1.0, 0.0, 0.0, 1.0, 113.7786217269288, 45.75446105139588)">
               <g id="body" inkscape:label="body" style="fill-opacity:1.0;fill:rgb(0, 0, 0)" transform="matrix(1.0, 0.0, 0.0, 1.0, 0.0, 0.0)">
                  <path d="M 89.35586859669615,193.27818602213773 C 89.35586859669615,193.27818602213773 94.5993506956246,177.10381649449505 94.5993506956246,177.10381649449505 C 94.5993506956246,177.10381649449505 100.43633163215955,167.8458420537304 100.43633163215955,167.8458420537304 C 100.43633163215955,167.8458420537304 106.92188949601754,162.485956169212 106.92188949601754,162.485956169212 C 106.92188949601754,162.485956169212 110.48894279755137,161.02416590244513 110.48894279755137,161.02416590244513 C 110.48894279755137,161.02416590244513 123.29788258217857,149.49230882067098 123.29788258217857,149.49230882067098 C 123.29788258217857,149.49230882067098 124.59499415317674,149.3298861106957 124.59499415317674,149.3298861106957 C 124.59499415317674,149.3298861106957 134.65495300187155,142.26517628870587 139.52897152544182,138.52289922816828 C 144.18246339428018,134.949945242213 153.18041723153414,127.41181360484785 153.18041723153414,127.41181360484785 C 153.18041723153414,127.41181360484785 154.54555898599216,127.24087056832883 154.54555898599216,127.24087056832883 C 155.19279396851266,127.0845660418079 156.42263241745258,126.55711253934189 156.42263241745258,126.55711253934189 C 156.42263241745258,126.55711253934189 157.10520329320372,126.72804145877174 157.10520329320372,126.72804145877174 C 157.10520329320372,126.72804145877174 157.4464887310793,127.7536855607967 157.4464887310793,127.7536855607967 C 157.4464887310793,127.7536855607967 157.27584953528623,128.77932966282165 157.27584953528623,128.77932966282165 C 157.27584953528623,128.77932966282165 161.7125672769139,126.04428342978483 161.7125672769139,126.04428342978483 C 161.7125672769139,126.04428342978483 162.22449895687197,126.04428342978483 162.22449895687197,126.04428342978483 C 162.22449895687197,126.04428342978483 166.31993126062406,124.1639523793431 166.31993126062406,124.1639523793431 C 166.31993126062406,124.1639523793431 169.39150724779375,123.6511373868752 169.39150724779375,123.6511373868752 C 169.39150724779375,123.6511373868752 170.41536356142046,123.82206630334426 170.41536356142046,123.82206630334426 C 170.41536356142046,123.82206630334426 170.75664900225172,124.1639523793431 170.75664900225172,124.1639523793431 C 170.75664900225172,124.1639523793431 172.63372948000156,123.30925131087636 172.63372948000156,123.30925131087636 C 172.63372948000156,123.30925131087636 173.65758579362833,123.30925131087636 173.65758579362833,123.30925131087636 C 173.65758579362833,123.30925131087636 174.3401566693795,123.6511373868752 174.3401566693795,123.6511373868752 C 174.3401566693795,123.6511373868752 180.36153770238678,119.30070732389336 183.8961700746754,118.86481706391683 C 184.41665657699804,118.8006303971384 184.9822743046779,118.93640863408763 185.43195806826026,119.20668901690487 C 185.8816417743327,119.47696850975763 186.1974355804987,119.94613526828547 186.45581438484265,120.40327615840968 C 186.7216857409431,120.87367108854622 186.91457365870997,121.40380646253621 186.96774606480074,121.94173525290253 C 186.96774606480074,121.94173525290253 186.79709982271822,123.30925131087636 186.79709982271822,123.30925131087636 C 186.79709982271822,123.30925131087636 186.1145289440114,125.01865344484906 186.1145289440114,125.01865344484906 C 186.1145289440114,125.01865344484906 185.94388270192889,125.53146843731693 185.94388270192889,125.53146843731693 C 185.94388270192889,125.53146843731693 189.68523607820987,125.57448271699334 191.40446380347274,126.21522646630385 C 191.40446380347274,126.21522646630385 192.42832012005516,126.89898449529076 192.42832012005516,126.89898449529076 C 192.42832012005516,126.89898449529076 192.42832012005516,127.92462859731572 192.42832012005516,127.92462859731572 C 192.2500249448238,128.51451842912496 191.40446380347274,129.4630876947694 191.40446380347274,129.4630876947694 C 191.40446380347274,129.4630876947694 188.33288781630307,132.19811981071706 188.33288781630307,132.19811981071706 C 188.33288781630307,132.19811981071706 192.42832012005516,131.68530481824916 192.42832012005516,131.68530481824916 C 192.42832012005516,131.68530481824916 194.4760397935981,132.71094892027412 194.4760397935981,132.71094892027412 C 194.4760397935981,132.71094892027412 197.54761578372342,132.88187783970395 197.54761578372342,132.88187783970395 C 197.54761578372342,132.88187783970395 198.74211481628794,134.76222301019567 198.74211481628794,134.76222301019567 C 198.74211481628794,134.76222301019567 199.9366208951419,135.6169240757016 199.9366208951419,135.6169240757016 C 199.9366208951419,135.6169240757016 195.6705423493073,141.59981742011482 195.6705423493073,141.59981742011482 C 195.6705423493073,141.59981742011482 187.6503169405519,150.83057199299355 187.6503169405519,150.83057199299355 C 187.6503169405519,150.83057199299355 188.33288781630307,151.00150796800716 188.33288781630307,151.00150796800716 C 188.33288781630307,151.00150796800716 189.18610493413672,151.34338698546142 189.18610493413672,151.34338698546142 C 189.18610493413672,151.34338698546142 189.3567441299298,151.8562090364739 189.3567441299298,151.8562090364739 C 189.3567441299298,151.8562090364739 184.57874095042655,161.4288426238461 184.57874095042655,161.4288426238461 C 184.57874095042655,161.4288426238461 184.74938014621966,163.13823769631338 184.74938014621966,163.13823769631338 C 184.74938014621966,163.13823769631338 189.52739037201232,168.77925908477772 189.52739037201232,168.77925908477772 C 189.52739037201232,168.77925908477772 194.30539355151558,176.47154750165822 194.30539355151558,176.47154750165822 C 194.30539355151558,176.47154750165822 196.1824740292654,183.48008495105717 196.1824740292654,183.48008495105717 C 196.1824740292654,183.48008495105717 196.1824740292654,194.24929861842878 196.1824740292654,194.24929861842878 C 196.1824740292654,194.24929861842878 195.49989610722483,204.33475072754115 195.49989610722483,204.33475072754115 C 195.49989610722483,204.33475072754115 194.4760397935981,215.27490037288717 194.4760397935981,215.27490037288717 C 194.4760397935981,215.27490037288717 192.08703468217956,225.7022350257653 192.08703468217956,225.7022350257653 C 192.08703468217956,225.7022350257653 190.380607489846,229.97572800084197 190.380607489846,229.97572800084197 C 190.380607489846,229.97572800084197 199.92129402156914,241.00336630196796 199.92129402156914,241.00336630196796 C 199.92129402156914,241.00336630196796 201.42876781934646,242.7649969108921 201.42876781934646,242.7649969108921 C 201.42876781934646,242.7649969108921 201.54631965587825,242.9140091056132 201.54631965587825,242.9140091056132 C 201.54631965587825,242.9140091056132 204.0507980807718,244.85369365596765 206.6026060133561,246.87871610210823 C 209.15441299202232,248.90374468953218 211.71568284188396,250.94583733116363 211.71568284188396,250.94583733116363 C 211.71568284188396,250.94583733116363 216.22394713435648,253.10571536956496 216.22394713435648,253.10571536956496 C 216.22394713435648,253.10571536956496 230.2387683572301,253.20389061152642 230.2387683572301,253.20389061152642 C 230.2387683572301,253.20389061152642 232.19888702081533,251.4367179496005 232.19888702081533,251.4367179496005 C 232.19888702081533,251.4367179496005 233.0809380396804,251.04401257016428 233.0809380396804,251.04401257016428 C 233.0809380396804,251.04401257016428 233.9629855383564,251.04401257016428 233.9629855383564,251.04401257016428 C 233.9629855383564,251.04401257016428 234.45301916557378,251.33854270763902 234.45301916557378,251.33854270763902 C 234.45301916557378,251.33854270763902 234.74703264970265,252.0257738129596 234.74703264970265,252.0257738129596 C 234.74703264970265,252.0257738129596 234.84503831879385,252.12395390767048 234.84503831879385,252.12395390767048 C 234.84503831879385,252.12395390767048 236.41313254444196,251.53489319156196 236.41313254444196,251.53489319156196 C 236.41313254444196,251.53489319156196 237.58919880900825,251.63306843352342 237.58919880900825,251.63306843352342 C 237.58919880900825,251.63306843352342 238.56925549992016,252.32030439159342 238.56925549992016,252.32030439159342 C 238.56925549992016,252.32030439159342 238.96127993490163,253.30206585348787 238.96127993490163,253.30206585348787 C 238.96127993490163,253.30206585348787 239.05928912713753,254.18565207046007 239.05928912713753,254.18565207046007 C 239.05928912713753,254.18565207046007 238.66726645372842,254.7747079338192 238.66726645372842,254.7747079338192 C 238.66726645372842,254.7747079338192 239.64732314168467,254.7747079338192 239.64732314168467,254.7747079338192 C 239.64732314168467,254.7747079338192 239.94133662581353,254.97106316094198 239.94133662581353,254.97106316094198 C 239.94133662581353,254.97106316094198 239.74532704920352,255.5601190509483 239.74532704920352,255.5601190509483 C 239.74532704920352,255.5601190509483 238.76527036124725,256.24735007040573 238.76527036124725,256.24735007040573 C 238.76527036124725,256.24735007040573 237.6872097628165,257.42546681271733 237.6872097628165,257.42546681271733 C 237.6872097628165,257.42546681271733 237.49119490148942,257.719997172252 237.49119490148942,257.719997172252 C 237.49119490148942,257.719997172252 240.43137025598656,257.719997172252 240.43137025598656,257.719997172252 C 240.43137025598656,257.719997172252 242.68549799681412,255.6582942100074 242.68549799681412,255.6582942100074 C 242.68549799681412,255.6582942100074 244.1555883149434,254.6765328014073 244.1555883149434,254.6765328014073 C 244.1555883149434,254.6765328014073 246.5077261317487,253.79294647192475 246.5077261317487,253.79294647192475 C 246.5077261317487,253.79294647192475 247.8798063768559,253.49841611535086 247.8798063768559,253.49841611535086 C 247.8798063768559,253.49841611535086 249.2518870623562,252.90936025199176 249.2518870623562,252.90936025199176 C 249.2518870623562,252.90936025199176 249.93792498146652,253.0075352748541 249.93792498146652,253.0075352748541 C 249.93792498146652,253.0075352748541 250.42795332692248,253.20389061152642 250.42795332692248,253.20389061152642 C 250.42795332692248,253.20389061152642 250.81997732446652,253.49841611535086 250.81997732446652,253.49841611535086 C 250.81997732446652,253.49841611535086 250.7219725361615,254.28382720287198 250.7219725361615,254.28382720287198 C 250.7219725361615,254.28382720287198 250.7219725361615,254.6765328014073 250.7219725361615,254.6765328014073 C 250.7219725361615,254.6765328014073 254.25017639585872,252.12395390767048 254.25017639585872,252.12395390767048 C 254.25017639585872,252.12395390767048 255.42624761706398,251.53489319156196 255.42624761706398,251.53489319156196 C 255.42624761706398,251.53489319156196 256.3082997915915,251.53489319156196 256.3082997915915,251.53489319156196 C 256.3082997915915,251.53489319156196 257.1903519690746,251.63306843352342 257.1903519690746,251.63306843352342 C 257.1903519690746,251.63306843352342 257.77838509987987,251.92759857099816 257.77838509987987,251.92759857099816 C 257.77838509987987,251.92759857099816 257.9743995208139,252.41847941149496 257.9743995208139,252.41847941149496 C 257.9743995208139,252.41847941149496 257.8763898881849,252.90936025199176 257.8763898881849,252.90936025199176 C 257.8763898881849,252.90936025199176 257.3863614333696,253.8911217138862 257.3863614333696,253.8911217138862 C 257.3863614333696,253.8911217138862 256.406304497138,255.85464944897336 256.406304497138,255.85464944897336 C 256.406304497138,255.85464944897336 253.76014805040276,259.87987035790394 253.76014805040276,259.87987035790394 C 253.76014805040276,259.87987035790394 250.91798211277154,264.1014467811547 250.91798211277154,264.1014467811547 C 250.91798211277154,264.1014467811547 246.01769778629273,268.91208392051414 246.01769778629273,268.91208392051414 C 246.01769778629273,268.91208392051414 239.35330437283875,274.409951282876 239.35330437283875,274.409951282876 C 239.35330437283875,274.409951282876 229.55273043811977,278.1406475258882 229.55273043811977,278.1406475258882 C 229.55273043811977,278.1406475258882 222.98634709768785,279.8096451649518 222.98634709768785,279.8096451649518 C 222.98634709768785,279.8096451649518 220.2421848459011,281.5768118697503 220.2421848459011,281.5768118697503 C 220.2421848459011,281.5768118697503 213.3817809750509,280.7914064077471 213.3817809750509,280.7914064077471 C 213.3817809750509,280.7914064077471 209.65756203235222,279.4169389031975 209.65756203235222,279.4169389031975 C 209.65756203235222,279.4169389031975 207.40342988759377,278.0424714016087 207.40342988759377,278.0424714016087 C 207.40342988759377,278.0424714016087 207.40342988759377,278.0424714016087 207.40342988759377,278.0424714016087 C 207.40342988759377,278.0424714016087 208.12682309823882,282.6043372219495 208.12682309823882,282.6043372219495 C 208.12682309823882,282.6043372219495 207.96538355150747,286.10827063765316 207.96538355150747,286.10827063765316 C 207.96538355150747,286.10827063765316 206.35099511866102,293.709104953405 206.35099511866102,293.709104953405 C 206.35099511866102,293.709104953405 203.9832150831862,301.14822246989615 203.9832150831862,301.14822246989615 C 203.9832150831862,301.14822246989615 200.5929986737176,309.82719231709694 200.5929986737176,309.82719231709694 C 200.5929986737176,309.82719231709694 194.2430572162109,316.8889623993574 194.2430572162109,316.8889623993574 C 194.2430572162109,316.8889623993574 188.1621851979939,322.06399883085453 188.1621851979939,322.06399883085453 C 188.1621851979939,322.06399883085453 184.12743322148398,325.7864076970594 184.12743322148398,325.7864076970594 C 184.12743322148398,325.7864076970594 184.71964248763442,330.96375951179203 184.71964248763442,330.96375951179203 C 184.71964248763442,330.96375951179203 182.1354610883542,335.38608467685947 182.1354610883542,335.38608467685947 C 182.1354610883542,335.38608467685947 177.12860477923022,342.0195653644356 177.12860477923022,342.0195653644356 C 177.12860477923022,342.0195653644356 175.13663264610045,346.81941091288024 175.13663264610045,346.81941091288024 C 175.13663264610045,346.81941091288024 176.75174689995893,353.6146860496292 176.75174689995893,353.6146860496292 C 176.75174689995893,353.6146860496292 177.12860477923022,356.95838860518035 177.12860477923022,356.95838860518035 C 177.12860477923022,356.95838860518035 176.91326044159615,357.6055593492488 176.91326044159615,357.6055593492488 C 176.91326044159615,357.6055593492488 176.4825576678378,358.41451748098467 176.4825576678378,358.41451748098467 C 176.4825576678378,358.41451748098467 174.22140334592066,360.8414059962423 174.22140334592066,360.8414059962423 C 174.22140334592066,360.8414059962423 170.7758304946583,364.3469030039271 170.7758304946583,364.3469030039271 C 170.7758304946583,364.3469030039271 168.9992026991626,365.9648263259435 168.9992026991626,365.9648263259435 C 168.9992026991626,365.9648263259435 168.2454798943306,366.3962711358076 168.2454798943306,366.3962711358076 C 168.2454798943306,366.3962711358076 167.70710847637775,364.6165604202021 167.70710847637775,364.6165604202021 C 167.70710847637775,364.6165604202021 167.43792629054607,363.16042448585324 167.43792629054607,363.16042448585324 C 167.43792629054607,363.16042448585324 167.38408844234846,362.4593222626749 167.38408844234846,362.4593222626749 C 167.38408844234846,362.4593222626749 169.37606057843388,359.81671487175754 169.37606057843388,359.81671487175754 C 169.37606057843388,359.81671487175754 170.56047910777914,359.0077567400216 170.56047910777914,359.0077567400216 C 170.56047910777914,359.0077567400216 171.04501268049,357.8752097069792 171.04501268049,357.8752097069792 C 171.04501268049,357.8752097069792 170.9373369870504,356.9044571231097 170.9373369870504,356.9044571231097 C 170.9373369870504,356.9044571231097 170.4528034172952,356.0415675063423 170.4528034172952,356.0415675063423 C 170.4528034172952,356.0415675063423 170.07594553802392,355.39439676523466 170.07594553802392,355.39439676523466 C 170.07594553802392,355.39439676523466 169.48373627187345,354.96295195833136 169.48373627187345,354.96295195833136 C 169.48373627187345,354.96295195833136 168.7300134670415,354.8550889912292 168.7300134670415,354.8550889912292 C 168.7300134670415,354.8550889912292 168.7300134670415,355.1786778925357 168.7300134670415,355.1786778925357 C 168.7300134670415,355.1786778925357 168.83768916048103,355.82584157509876 168.83768916048103,355.82584157509876 C 168.83768916048103,355.82584157509876 168.83768916048103,356.5269437982771 168.83768916048103,356.5269437982771 C 168.83768916048103,356.5269437982771 168.2454798943306,357.33590193001294 168.2454798943306,357.33590193001294 C 168.2454798943306,357.33590193001294 167.491764135788,358.7920378643619 167.491764135788,358.7920378643619 C 167.491764135788,358.7920378643619 166.79187917915365,359.762783386726 166.79187917915365,359.762783386726 C 166.79187917915365,359.762783386726 163.23863063445168,362.6750481939184 163.23863063445168,362.6750481939184 C 163.23863063445168,362.6750481939184 161.94653641166684,362.94470561315427 161.94653641166684,362.94470561315427 C 161.94653641166684,362.94470561315427 162.80792786069335,350.16311346843133 162.80792786069335,350.16311346843133 C 162.80792786069335,350.16311346843133 161.3543271455164,350.540626793264 161.3543271455164,350.540626793264 C 161.3543271455164,350.540626793264 159.84688858214184,352.1585501182411 159.84688858214184,352.1585501182411 C 159.84688858214184,352.1585501182411 158.87782143672013,353.6686104761161 158.87782143672013,353.6686104761161 C 158.87782143672013,353.6686104761161 158.1241056811332,355.4483282502662 158.1241056811332,355.4483282502662 C 158.1241056811332,355.4483282502662 157.90875429425404,357.6594908313195 157.90875429425404,357.6594908313195 C 157.90875429425404,357.6594908313195 158.01642998769358,359.16955118919446 158.01642998769358,359.16955118919446 C 158.01642998769358,359.16955118919446 158.9316592849177,360.73354302914015 158.9316592849177,360.73354302914015 C 158.9316592849177,360.73354302914015 160.22374646141313,362.6211167118478 160.22374646141313,362.6211167118478 C 160.22374646141313,362.6211167118478 161.62351637763754,363.5379448692304 161.62351637763754,363.5379448692304 C 161.62351637763754,363.5379448692304 160.9236314180475,364.72441632875973 160.9236314180475,364.72441632875973 C 160.9236314180475,364.72441632875973 158.17794352637515,365.6951689096685 158.17794352637515,365.6951689096685 C 158.17794352637515,365.6951689096685 155.48607938736592,364.2390400368249 155.48607938736592,364.2390400368249 C 155.48607938736592,364.2390400368249 153.92481002208314,361.92002154721405 153.92481002208314,361.92002154721405 C 153.92481002208314,361.92002154721405 151.98666868790593,359.33134563836734 151.98666868790593,359.33134563836734 C 151.98666868790593,359.33134563836734 151.50213511519507,357.38983341504445 151.50213511519507,357.38983341504445 C 151.50213511519507,357.38983341504445 151.39445942175547,354.63936305702487 151.39445942175547,354.63936305702487 C 151.39445942175547,354.63936305702487 151.77131730102676,352.75178937431724 151.77131730102676,352.75178937431724 C 151.77131730102676,352.75178937431724 152.68654659825086,350.9181471766411 152.68654659825086,350.9181471766411 C 152.68654659825086,350.9181471766411 154.2478300561125,349.300223851664 154.2478300561125,349.300223851664 C 154.2478300561125,349.300223851664 152.22361158733514,347.2889395375487 152.22361158733514,347.2889395375487 C 152.22361158733514,347.2889395375487 151.4860612758307,343.71789177738725 151.4860612758307,343.71789177738725 C 151.4860612758307,343.71789177738725 149.70363393192727,340.33155228751207 149.70363393192727,340.33155228751207 C 149.70363393192727,340.33155228751207 149.39632130361156,337.1914904962866 149.39632130361156,337.1914904962866 C 149.39632130361156,337.1914904962866 149.45778383104812,336.0832338071421 149.45778383104812,336.0832338071421 C 149.45778383104812,336.0832338071421 145.89293618953067,336.329511502831 145.89293618953067,336.329511502831 C 145.89293618953067,336.329511502831 142.2051564498064,336.69893510490886 142.2051564498064,336.69893510490886 C 142.2051564498064,336.69893510490886 138.14860860061933,340.3931217129147 138.14860860061933,340.3931217129147 C 138.14860860061933,340.3931217129147 136.0588756746896,342.8559127839317 136.0588756746896,342.8559127839317 C 136.0588756746896,342.8559127839317 133.9691357024705,346.30382169624863 133.9691357024705,346.30382169624863 C 133.9691357024705,346.30382169624863 133.7847481260722,346.85795356861274 133.7847481260722,346.85795356861274 C 133.7847481260722,346.85795356861274 134.522298434621,350.2442859969825 134.522298434621,350.2442859969825 C 134.522298434621,350.2442859969825 135.62863799445654,354.12318793678 135.62863799445654,354.12318793678 C 135.62863799445654,354.12318793678 136.2432632540436,357.2632426694609 136.2432632540436,357.2632426694609 C 136.2432632540436,357.2632426694609 136.36618830596097,359.1719089266584 136.36618830596097,359.1719089266584 C 136.36618830596097,359.1719089266584 134.89107359037325,361.81941532946695 134.89107359037325,361.81941532946695 C 134.89107359037325,361.81941532946695 133.60036054671826,363.2355191367421 133.60036054671826,363.2355191367421 C 133.60036054671826,363.2355191367421 131.08038289131042,363.3586579845865 131.08038289131042,363.3586579845865 C 131.08038289131042,363.3586579845865 130.3428184872271,363.17394971133945 130.3428184872271,363.17394971133945 C 130.3428184872271,363.17394971133945 130.03550585891142,362.8045261092616 130.03550585891142,362.8045261092616 C 130.03550585891142,362.8045261092616 131.14184541874693,361.6346999976753 131.14184541874693,361.6346999976753 C 131.14184541874693,361.6346999976753 131.4491580470626,360.2801656158028 131.4491580470626,360.2801656158028 C 131.4491580470626,360.2801656158028 131.08038289131042,358.3714993586054 131.08038289131042,358.3714993586054 C 131.08038289131042,358.3714993586054 130.2198934382654,355.9087082875884 130.2198934382654,355.9087082875884 C 130.2198934382654,355.9087082875884 129.11356797100868,354.24632678462444 129.11356797100868,354.24632678462444 C 129.11356797100868,354.24632678462444 127.69991578285749,352.7686464934021 127.69991578285749,352.7686464934021 C 127.69991578285749,352.7686464934021 126.34772611918714,354.6157433281577 126.34772611918714,354.6157433281577 C 126.34772611918714,354.6157433281577 125.67163833511924,356.64754843023877 125.67163833511924,356.64754843023877 C 125.67163833511924,356.64754843023877 125.48725075872096,359.11033950421654 125.48725075872096,359.11033950421654 C 125.48725075872096,359.11033950421654 125.85602591151752,361.1421446062976 125.85602591151752,361.1421446062976 C 125.85602591151752,361.1421446062976 127.33114062710524,363.66650510271717 127.33114062710524,363.66650510271717 C 127.33114062710524,363.66650510271717 127.69991578285749,364.22063697508133 127.69991578285749,364.22063697508133 C 127.69991578285749,364.22063697508133 122.29118531924516,361.6346999976753 122.29118531924516,361.6346999976753 C 122.29118531924516,361.6346999976753 120.63168302725913,359.60290195117807 120.63168302725913,359.60290195117807 C 120.63168302725913,359.60290195117807 119.40241841550622,356.4628401599525 119.40241841550622,356.4628401599525 C 119.40241841550622,356.4628401599525 119.15656831167138,354.6157433281577 119.15656831167138,354.6157433281577 C 119.15656831167138,354.6157433281577 119.09510578719053,353.3227783657662 119.09510578719053,353.3227783657662 C 119.09510578719053,353.3227783657662 117.80439274353557,353.81533375714395 117.80439274353557,353.81533375714395 C 117.80439274353557,353.81533375714395 116.9439173801137,355.7240000143414 116.9439173801137,355.7240000143414 C 116.9439173801137,355.7240000143414 116.45220307986526,356.95539555133024 116.45220307986526,356.95539555133024 C 116.45220307986526,356.95539555133024 116.45220307986526,358.6177841128388 116.45220307986526,358.6177841128388 C 116.45220307986526,358.6177841128388 116.8209923281963,360.46487388608904 116.8209923281963,360.46487388608904 C 116.8209923281963,360.46487388608904 117.31269253586595,362.61981783897534 117.31269253586595,362.61981783897534 C 117.31269253586595,362.61981783897534 118.11170537185126,364.0359216462505 118.11170537185126,364.0359216462505 C 118.11170537185126,364.0359216462505 119.7097310438219,365.3904630866676 119.7097310438219,365.3904630866676 C 119.7097310438219,365.3904630866676 116.69805318370004,365.14417833243414 116.69805318370004,365.14417833243414 C 116.69805318370004,365.14417833243414 113.31760016782596,362.55824841357276 113.31760016782596,362.55824841357276 C 113.31760016782596,362.55824841357276 111.71956040032083,361.2037140317002 111.71956040032083,361.2037140317002 C 111.71956040032083,361.2037140317002 110.4903098841024,359.47975604478904 110.4903098841024,359.47975604478904 C 110.4903098841024,359.47975604478904 111.04347261625293,354.6773127505995 111.04347261625293,354.6773127505995 C 111.04347261625293,354.6773127505995 112.27273722800584,352.02981340633556 112.27273722800584,352.02981340633556 C 112.27273722800584,352.02981340633556 113.37906269230686,349.7517306085656 113.37906269230686,349.7517306085656 C 113.37906269230686,349.7517306085656 114.60832730405977,348.0893491056016 114.60832730405977,348.0893491056016 C 114.60832730405977,348.0893491056016 115.03856498429286,346.7348147207683 115.03856498429286,346.7348147207683 C 115.03856498429286,346.7348147207683 113.44052521974336,342.6712045136454 113.44052521974336,342.6712045136454 C 113.44052521974336,342.6712045136454 110.92054756433552,338.97701790563957 110.92054756433552,338.97701790563957 C 110.92054756433552,338.97701790563957 108.76934506467984,335.8369561114533 108.76934506467984,335.8369561114533 C 108.76934506467984,335.8369561114533 106.06497983287369,332.3274777766945 106.06497983287369,332.3274777766945 C 106.06497983287369,332.3274777766945 103.11475040465388,328.38701347596054 103.11475040465388,328.38701347596054 C 103.11475040465388,328.38701347596054 99.48844728494498,325.80108355413836 99.48844728494498,325.80108355413836 C 99.48844728494498,325.80108355413836 95.06311723667193,322.0453204651461 95.06311723667193,322.0453204651461 C 95.06311723667193,322.0453204651461 89.90023687393875,315.64206509043447 89.90023687393875,315.64206509043447 C 89.90023687393875,315.64206509043447 86.76561986932066,311.64002783502565 86.76561986932066,311.64002783502565 C 86.76561986932066,311.64002783502565 82.64761654194211,300.92688102822996 82.64761654194211,300.92688102822996 C 82.64761654194211,300.92688102822996 80.98811424995608,293.6000737083486 80.98811424995608,293.6000737083486 C 80.98811424995608,293.6000737083486 79.63593868182025,286.5811205651425 79.63593868182025,286.5811205651425 C 79.63593868182025,286.5811205651425 79.45153700988749,283.194779313592 79.45153700988749,283.194779313592 C 79.45153700988749,283.194779313592 79.26714943053355,280.239429321925 79.26714943053355,280.239429321925 C 79.26714943053355,280.239429321925 79.08276185413524,279.6853009788332 79.08276185413524,279.6853009788332 C 79.08276185413524,279.6853009788332 76.00962146657687,281.5939654684337 76.00962146657687,281.5939654684337 C 76.00962146657687,281.5939654684337 70.72381605488195,283.56419938639755 70.72381605488195,283.56419938639755 C 70.72381605488195,283.56419938639755 62.97948141968118,284.48774603765884 62.97948141968118,284.48774603765884 C 62.97948141968118,284.48774603765884 57.01758822391835,284.3030359997756 57.01758822391835,284.3030359997756 C 57.01758822391835,284.3030359997756 48.90447843592105,282.33280208477254 48.90447843592105,282.33280208477254 C 48.90447843592105,282.33280208477254 41.098695368818255,279.31588267066377 41.098695368818255,279.31588267066377 C 41.098695368818255,279.31588267066377 33.642111340341415,274.75020670479853 33.642111340341415,274.75020670479853 C 33.642111340341415,274.75020670479853 29.66614409143699,271.6490069921348 29.66614409143699,271.6490069921348 C 29.66614409143699,271.6490069921348 28.270278123983644,269.7180331137138 28.270278123983644,269.7180331137138 C 28.270278123983644,269.7180331137138 27.738523686080015,268.2531580231347 27.738523686080015,268.2531580231347 C 27.738523686080015,268.2531580231347 27.67205790596458,267.6538920608837 27.67205790596458,267.6538920608837 C 27.67205790596458,267.6538920608837 29.200855436604428,267.9868192627264 29.200855436604428,267.9868192627264 C 29.200855436604428,267.9868192627264 27.605592122893484,265.5231625695802 27.605592122893484,265.5231625695802 C 27.605592122893484,265.5231625695802 25.146203187054027,261.328293345963 25.146203187054027,261.328293345963 C 25.146203187054027,261.328293345963 23.085651218510577,258.0656161820614 23.085651218510577,258.0656161820614 C 23.085651218510577,258.0656161820614 21.29097646891887,255.20245454892634 21.29097646891887,255.20245454892634 C 21.29097646891887,255.20245454892634 20.028042064652027,252.40587142670606 20.028042064652027,252.40587142670606 C 20.028042064652027,252.40587142670606 20.160987720417353,251.20734016838387 20.160987720417353,251.20734016838387 C 20.160987720417353,251.20734016838387 20.293919283603856,250.40831418166005 20.293919283603856,250.40831418166005 C 20.293919283603856,250.40831418166005 21.423908032105373,250.2085590099366 21.423908032105373,250.2085590099366 C 21.423908032105373,250.2085590099366 22.28801956461075,250.2751474484101 22.28801956461075,250.2751474484101 C 22.28801956461075,250.2751474484101 23.351528437462377,250.40831418166005 23.351528437462377,250.40831418166005 C 23.351528437462377,250.40831418166005 24.016228531131333,250.5414857676594 24.016228531131333,250.5414857676594 C 24.016228531131333,250.5414857676594 26.276191935555573,252.13953288835765 26.276191935555573,252.13953288835765 C 26.276191935555573,252.13953288835765 26.94089202922453,252.53904323476533 26.94089202922453,252.53904323476533 C 26.94089202922453,252.53904323476533 27.273235031247424,251.8731892751999 27.273235031247424,251.8731892751999 C 27.273235031247424,251.8731892751999 27.539112247243594,251.74002210079092 27.539112247243594,251.74002210079092 C 27.539112247243594,251.74002210079092 27.605592122893484,250.07539183552763 27.605592122893484,250.07539183552763 C 27.605592122893484,250.07539183552763 27.871469341845312,249.27636628996282 27.871469341845312,249.27636628996282 C 27.871469341845312,249.27636628996282 29.001443997768007,249.0100275295545 29.001443997768007,249.0100275295545 C 29.001443997768007,249.0100275295545 30.131432746269553,249.47612146464706 30.131432746269553,249.47612146464706 C 30.131432746269553,249.47612146464706 32.79021902836658,250.94099655522612 32.79021902836658,250.94099655522612 C 32.79021902836658,250.94099655522612 33.52138490215097,252.47245986814036 33.52138490215097,252.47245986814036 C 33.52138490215097,252.47245986814036 33.92019368428927,253.27148078005484 33.92019368428927,253.27148078005484 C 33.92019368428927,253.27148078005484 34.25255077593533,254.6697722849098 34.25255077593533,254.6697722849098 C 34.25255077593533,254.6697722849098 35.05018243279082,255.40220977690495 35.05018243279082,255.40220977690495 C 35.05018243279082,255.40220977690495 37.243680057099624,256.0 37.243680057099624,256.0 C 37.243680057099624,256.0 38.17425736972041,256.0 38.17425736972041,256.0 C 38.17425736972041,256.0 38.639546024553,255.6019650048836 38.639546024553,255.6019650048836 C 38.639546024553,255.6019650048836 38.17425736972041,254.4700170036368 38.17425736972041,254.4700170036368 C 38.17425736972041,254.4700170036368 38.506600368787645,253.67099112646255 38.506600368787645,253.67099112646255 C 38.506600368787645,253.67099112646255 39.57012333717378,252.6056266013903 39.57012333717378,252.6056266013903 C 39.57012333717378,252.6056266013903 40.96597521204828,251.54026692906746 40.96597521204828,251.54026692906746 C 40.96597521204828,251.54026692906746 42.82712983433419,250.94099655522612 42.82712983433419,250.94099655522612 C 42.82712983433419,250.94099655522612 43.824172930026066,250.94099655522612 43.824172930026066,250.94099655522612 C 43.824172930026066,250.94099655522612 45.352970460665915,251.20734016838387 45.352970460665915,251.20734016838387 C 45.352970460665915,251.20734016838387 46.61590486493276,251.8731892751999 46.61590486493276,251.8731892751999 C 46.61590486493276,251.8731892751999 48.344113834409,252.6056266013903 48.344113834409,252.6056266013903 C 48.344113834409,252.6056266013903 49.0087998325435,253.33806414667984 49.0087998325435,253.33806414667984 C 49.0087998325435,253.33806414667984 52.13287476947309,254.40342867175207 52.13287476947309,254.40342867175207 C 52.13287476947309,254.40342867175207 55.855184017000596,254.73635565153478 55.855184017000596,254.73635565153478 C 55.855184017000596,254.73635565153478 61.505099577306225,253.870746298186 61.505099577306225,253.870746298186 C 61.505099577306225,253.870746298186 67.08854935749648,252.87197021454804 67.08854935749648,252.87197021454804 C 67.08854935749648,252.87197021454804 71.74142182211025,251.8731892751999 71.74142182211025,251.8731892751999 C 71.74142182211025,251.8731892751999 74.93196253915525,249.4095378759622 74.93196253915525,249.4095378759622 C 74.93196253915525,249.4095378759622 81.84479841410459,243.6166210934485 81.84479841410459,243.6166210934485 C 81.84479841410459,243.6166210934485 86.83002797332009,237.6905384600029 86.83002797332009,237.6905384600029 C 86.83002797332009,237.6905384600029 91.01761178310133,232.43030405105526 91.01761178310133,232.43030405105526 C 91.01761178310133,232.43030405105526 91.7487776568857,231.63127806433144 91.7487776568857,231.63127806433144 C 91.7487776568857,231.63127806433144 90.41939156508226,226.63738682738253 90.41939156508226,226.63738682738253 C 90.41939156508226,226.63738682738253 89.88762303459978,221.044224337235 89.88762303459978,221.044224337235 C 89.88762303459978,221.044224337235 88.8241141587925,214.91838785258227 88.8241141587925,214.91838785258227 C 88.8241141587925,214.91838785258227 88.15941406512354,205.46328466413726 88.15941406512354,205.46328466413726 C 88.15941406512354,205.46328466413726 89.35586859669615,193.27818602213773 89.35586859669615,193.27818602213773 Z" style="fill-opacity:1.0;fill:rgb(0, 0, 0)"/>
               </g>
               <g id="eye_left" inkscape:label="eye_left" style="fill-opacity:1.0;fill:rgb(255, 255, 255)" transform="matrix(1.0, 0.0, 0.0, 1.0, 0.0, 0.0)">
                  <path d="M 118.7160140597895,190.4277518242627 C 118.7160140597895,190.4277518242627 118.7160140597895,190.4277518242627 118.7160140597895,190.4277518242627 C 113.33641841948051,195.85210478963697 104.99310874372111,196.66914414294328 100.08071997065585,192.25266192129249 C 95.16833249988653,187.836178389401 95.54708358983112,179.85860375786007 100.926678845857,174.4342504225673 C 106.30627451376435,169.00989875481275 114.64957068303116,168.19285865531623 119.56195883945614,172.6093403225767 C 124.47434546200711,177.02582355707784 124.0956074706782,185.00339807726237 118.7160140597895,190.4277518242627 Z" style="fill-opacity:1.0;fill:rgb(255, 255, 255)"/>
               </g>
               <g id="pupil_left" inkscape:label="pupil_left" style="fill-opacity:1.0;fill:rgb(0, 0, 0)" transform="matrix(1.0, 0.0, 0.0, 1.0, 0.0, 0.0)">
                  <path d="M 116.98577560231064,190.19831006906412 C 116.98577560231064,190.19831006906412 116.98577560231064,190.19831006906412 116.98577560231064,190.19831006906412 C 112.05396802376967,194.3177151468453 105.12569938130588,194.25929066593983 101.51105907559707,190.0678156463187 C 97.89641877697295,185.87634063491282 98.96419872652962,179.13903926269174 103.89600520805467,175.0196329085859 C 106.26434268954526,173.04142408760015 109.22523255581373,171.94383203246005 112.12730457497807,171.96830393637057 C 115.02937659456879,171.9927757895423 117.63490946481107,173.1373102035991 119.37072173476824,175.1501273313313 C 121.10653361574285,177.16294478916092 121.83043576911999,179.87915938549065 121.38317198396138,182.7012409155114 C 120.93590932969207,185.52332262538738 119.35411346898408,188.22010169850103 116.98577560231064,190.19831006906412 Z" style="fill-opacity:1.0;fill:rgb(0, 0, 0)"/>
               </g>
               <g id="eye_right" inkscape:label="eye_right" style="fill-opacity:1.0;fill:rgb(255, 255, 255)" transform="matrix(1.0, 0.0, 0.0, 1.0, 0.0, 0.0)">
                  <path d="M 189.7214109767839,185.85801158454208 C 189.7214109767839,185.85801158454208 189.7214109767839,185.85801158454208 189.7214109767839,185.85801158454208 C 191.14144765462294,193.32228488732332 186.7809419631775,199.2307276421713 179.9819542717633,199.05488321070885 C 176.71696431375375,198.97043971280078 173.31481067343975,197.4655267236785 170.52392011197327,194.87121191804832 C 167.73302955050679,192.27689711241814 165.78202011614627,188.8056961149316 165.10009532007297,185.22122477083013 C 163.68006077799606,177.75695135971685 168.04056353459896,171.8485069112394 174.83955202509355,172.02435314762414 C 181.6385387098461,172.20019981310725 188.30137270766778,178.3937405436979 189.7214109767839,185.85801158454208 Z" style="fill-opacity:1.0;fill:rgb(255, 255, 255)"/>
               </g>
               <g id="pupil_right" inkscape:label="pupil_right" style="fill-opacity:1.0;fill:rgb(0, 0, 0)" transform="matrix(1.0, 0.0, 0.0, 1.0, 0.0, 0.0)">
                  <path d="M 186.1671688284267,185.3202850488792 C 186.1671688284267,185.3202850488792 186.1671688284267,185.3202850488792 186.1671688284267,185.3202850488792 C 187.6118820728555,191.092211571402 185.04233518966117,195.97744022392305 180.42792049657828,196.23174653063182 C 175.81350646468331,196.48605522853103 170.90161126248117,192.01314085755533 169.45689486286958,186.24121454043717 C 168.76311777713408,183.46943691641883 168.97802864563317,180.76267152803638 170.05434697622877,178.71637490810826 C 171.13066530682437,176.67007828818012 172.98022244231439,175.45187524920254 175.19614319767362,175.32975305572376 C 177.41206362688672,175.2076295589916 179.81282884019828,176.19159173658437 181.87029560079122,178.06518048273745 C 183.92776249195828,179.93876908500243 185.47339249463644,182.5485073530041 186.1671688284267,185.3202850488792 Z" style="fill-opacity:1.0;fill:rgb(0, 0, 0)"/>
               </g>
               <g id="beak" inkscape:label="beak" style="fill-opacity:1.0;fill:rgb(255, 255, 255)" transform="matrix(1.0, 0.0, 0.0, 1.0, 0.0, 0.0)">
                  <path d="M 134.56873710257508,200.2498326395927 C 134.56873710257508,200.2498326395927 134.56873710257508,200.2498326395927 134.56873710257508,200.2498326395927 C 135.7076950832288,198.91874625353168 139.40828909596445,194.34478099732732 142.0601254648321,190.9933688458031 C 142.0601254648321,190.9933688458031 143.07697017368997,189.95654313570577 143.07697017368997,189.95654313570577 C 143.07697017368997,189.95654313570577 144.1569897913178,189.7036581270981 144.1569897913178,189.7036581270981 C 144.1569897913178,189.7036581270981 145.23700236265628,189.87010452133654 145.23700236265628,189.87010452133654 C 145.23700236265628,189.87010452133654 146.1492508489147,190.99441359034455 146.1492508489147,190.99441359034455 C 146.1492508489147,190.99441359034455 154.03625577592786,201.48950496261125 154.03625577592786,201.48950496261125 C 154.03625577592786,201.48950496261125 156.45412473806346,205.14383239268983 156.45412473806346,205.14383239268983 C 156.45412473806346,205.14383239268983 155.8790040567565,205.97444429762274 155.8790040567565,205.97444429762274 C 149.05599001403712,206.6764055184045 133.24491325218338,206.01969429981483 131.57205491382234,205.75111571873103 C 129.89919661654443,205.48243325686173 130.80509109669123,204.62842318374936 130.80509109669123,204.62842318374936 C 130.80509109669123,204.62842318374936 133.84066977596484,200.97389106375385 134.56873710257508,200.2498326395927 Z" style="fill-opacity:1.0;fill:rgb(255, 255, 255)"/>
               </g>
               <g id="belly" inkscape:label="belly" style="fill-opacity:1.0;fill:rgb(255, 255, 255)" transform="matrix(1.0, 0.0, 0.0, 1.0, 0.0, 0.0)">
                  <path d="M 174.5847312972927,269.3835414434936 C 183.89166562748477,276.8844740571254 193.4914766518349,287.2469152732002 193.4914766518349,298.6929493351098 C 193.4914766518349,310.13898339701944 188.84367990833795,318.206203667892 180.34976401197366,324.89270513193196 C 171.8558470143063,331.57920025651816 159.81145128920775,335.40419125308296 145.60954757585796,335.40419125308296 C 131.40764386250817,335.40419125308296 117.66330870837223,332.76383067075847 108.06072907565365,325.78117690988586 C 98.45815409856402,318.7985185874476 91.81475016127388,309.25051162202624 91.81475016127388,297.80447756011665 C 91.81474557451878,286.358443498208 103.48406968555466,275.6998485520865 112.79100401574672,268.1989159384547 C 122.09793834593881,260.69798332482287 125.79042563288516,260.5009175942352 139.99232934623495,260.50091759423526 C 154.19423798568192,260.50091759423526 165.2777933763354,261.8826121009814 174.5847312972927,269.3835414434936 Z" style="fill-opacity:1.0;fill:rgb(255, 255, 255)"/>
               </g>
               <g id="Polygon" inkscape:label="Polygon" style="fill-opacity:1.0;fill:rgb(0, 0, 0)" transform="matrix(1.0, 0.0, 0.0, 1.0, 0.0, 0.0)">
                  <path d="M 102.631943308811,168.55833765612286 C 102.631943308811,168.55833765612286 126.40844168083208,171.00194916923567 126.40844168083208,171.00194916923567 C 126.40844168083208,171.00194916923567 108.01085155245374,164.5967172480762 108.01085155245374,164.5967172480762 C 108.01085155245374,164.5967172480762 102.631943308811,168.55833765612286 102.631943308811,168.55833765612286 Z" style="fill-opacity:1.0;fill:rgb(0, 0, 0)"/>
               </g>
               <g id="g_5" inkscape:label="Polygon" style="fill-opacity:1.0;fill:rgb(0, 0, 0)" transform="matrix(1.0, 0.0, 0.0, 1.0, 0.0, 0.0)">
                  <path d="M 127.32290991968577,201.5471318829351 C 127.32290991968577,201.5471318829351 105.66769317043193,207.77634174799323 105.66769317043193,207.77634174799323 C 105.66769317043193,207.77634174799323 93.79196621460875,196.9653523597972 93.79196621460875,196.9653523597972 C 93.79196621460875,196.9653523597972 127.32290991968577,201.5471318829351 127.32290991968577,201.5471318829351 Z" style="fill-opacity:1.0;fill:rgb(0, 0, 0)"/>
               </g>
               <g id="g_6" inkscape:label="Polygon" style="fill-opacity:1.0;fill:rgb(0, 0, 0)" transform="matrix(1.0, 0.0, 0.0, 1.0, 0.0, 0.0)">
                  <path d="M 162.00103665836042,200.4304925207097 C 162.00103665836042,200.4304925207097 178.23003269110495,219.81102520294485 178.23003269110495,219.81102520294485 C 178.23003269110495,219.81102520294485 193.6787886659278,200.27420063340278 193.6787886659278,200.27420063340278 C 193.6787886659278,200.27420063340278 162.00103665836042,200.4304925207097 162.00103665836042,200.4304925207097 Z" style="fill-opacity:1.0;fill:rgb(0, 0, 0)"/>
               </g>
               <g id="g_7" inkscape:label="Polygon" style="fill-opacity:1.0;fill:rgb(0, 0, 0)" transform="matrix(1.0, 0.0, 0.0, 1.0, 0.0, 0.0)">
                  <path d="M 162.62523152380464,171.20340161301084 C 162.62523152380464,171.20340161301084 174.95302726694086,162.91978695071833 174.95302726694086,162.91978695071833 C 174.95302726694086,162.91978695071833 188.84130312296475,171.04710619643166 188.84130312296475,171.04710619643166 C 188.84130312296475,171.04710619643166 162.62523152380464,171.20340161301084 162.62523152380464,171.20340161301084 Z" style="fill-opacity:1.0;fill:rgb(0, 0, 0)"/>
               </g>
            </g>
         </g>
      </g>
   </g>
</svg>
