<?xml version="1.0" encoding="UTF-8" standalone="no"?>
<!-- Created with Inkscape (http://www.inkscape.org/) -->

<svg
   version="1.1"
   id="svg1"
   width="483.0322"
   height="501.64944"
   viewBox="0 0 483.0322 501.64944"
   xmlns="http://www.w3.org/2000/svg"
   xmlns:svg="http://www.w3.org/2000/svg">
  <defs
     id="defs1">
    <style
       id="style1"><![CDATA[]]></style>
  </defs>
  <path
     d="m 151.38009,118.05206 11.84911,-18.761101 13.16569,-10.8617 7.24113,-2.96228 26.00223,-23.36909 2.63314,-0.32914 c 0,0 20.42175,-14.31649 30.31603,-21.90014 9.44661,-7.24052 27.7125,-22.51641 27.7125,-22.51641 0,0 1.86624,-0.128229 2.77125,-0.346406 1.31389,-0.316748 3.81047,-1.385625 3.81047,-1.385625 0,0 1.0363,0.02293 1.38562,0.346406 0.53583,0.496194 0.69281,2.078435 0.69281,2.078435 l -0.3464,2.07844 9.00656,-5.5425 h 1.03922 l 8.31375,-3.810468 6.23531,-1.039219 2.07844,0.346406 0.69281,0.692813 3.81047,-1.732031 h 2.07844 l 1.38562,0.692812 c 0,0 12.22343,-8.81605199 19.39875,-9.69937499 1.05659,-0.130073 2.2048,0.145095 3.11766,0.692813 0.91286,0.54771599 1.55392,1.49845699 2.07843,2.42484399 0.53972,0.953246 0.93128,2.027554 1.03922,3.117656 0.0917,0.926408 -0.3464,2.77125 -0.3464,2.77125 l -1.38563,3.464062 -0.34641,1.039219 c 0,0 7.59496,0.08717 11.085,1.385625 0.7804,0.290344 2.07844,1.385625 2.07844,1.385625 0,0 0.20077,1.415353 0,2.078438 -0.36194,1.1954 -2.07844,3.11766 -2.07844,3.11766 l -6.23531,5.5425 8.31375,-1.03922 4.15688,2.07843 6.23531,0.34641 2.42484,3.81047 2.42485,1.73203 -8.66016,12.12422 -16.28109,18.70594 1.38562,0.3464 1.73203,0.69281 0.34641,1.03922 -9.69938,19.39875 0.34641,3.46406 9.69938,11.431411 9.69937,15.58828 3.81047,14.20266 v 21.82359 l -1.38563,20.43797 -2.07843,22.17 -4.84969,21.13078 -3.46406,8.66015 19.36764,22.34729 3.06018,3.56991 0.23863,0.30197 c -0.0769,-0.13836 5.0841,3.93073 10.26428,8.0344 5.18018,4.10368 10.37957,8.24194 10.37957,8.24194 l 9.1518,4.37695 28.45015,0.19895 3.97905,-3.58114 1.79057,-0.79581 h 1.79056 l 0.99477,0.59686 0.59685,1.39266 0.19895,0.19896 3.18324,-1.19372 2.38742,0.19895 1.98952,1.39267 0.79581,1.98952 0.19896,1.79057 -0.79581,1.19371 h 1.98952 l 0.59685,0.39791 -0.3979,1.19371 -1.98952,1.39266 -2.18847,2.38743 -0.39791,0.59686 h 5.96857 l 4.57589,-4.178 2.98429,-1.98952 4.77485,-1.79057 2.78533,-0.59686 2.78533,-1.19371 1.39266,0.19895 0.99476,0.39791 0.79581,0.59685 -0.19895,1.59162 v 0.79581 l 7.16227,-5.17275 2.38743,-1.19372 H 479.65 l 1.79057,0.19895 1.19371,0.59686 0.39791,0.99476 -0.19896,0.99476 -0.99476,1.98952 -1.98952,3.97905 -5.37171,8.15703 -5.76961,8.55494 -9.9476,9.74866 -13.52875,11.14132 -19.89521,7.56018 -13.32979,3.38219 -5.57066,3.58113 -13.92665,-1.59161 -7.56018,-2.78533 -4.5759,-2.78533 v 0 l 1.46849,9.24453 -0.32772,7.10065 -3.27722,15.40294 -4.8066,15.07522 -6.88216,17.58776 -12.89041,14.31054 -12.3442,10.48711 -8.19056,7.54339 1.20219,10.4918 -5.24591,8.96175 -10.16393,13.44262 -4.04372,9.72678 3.27869,13.77049 0.76503,6.77595 -0.43716,1.31148 -0.87432,1.63934 -4.59016,4.91804 -6.99453,7.10382 -3.60656,3.27869 -1.53006,0.87432 -1.09289,-3.60656 -0.54645,-2.95082 -0.10929,-1.42077 4.04372,-5.35519 2.40437,-1.63934 0.9836,-2.29508 -0.21858,-1.96722 -0.9836,-1.74863 -0.76503,-1.31147 -1.20219,-0.87432 -1.53005,-0.21858 v 0.65574 l 0.21858,1.31147 v 1.42077 l -1.20219,1.63934 -1.53005,2.95082 -1.42077,1.96721 -7.21311,5.90164 -2.62295,0.54645 1.74863,-25.90164 -2.95082,0.76503 -3.06011,3.27869 -1.96721,3.06011 -1.53005,3.60655 -0.43716,4.48088 0.21858,3.06011 1.85792,3.1694 2.62295,3.82513 2.84153,1.85793 -1.42076,2.40437 -5.57377,1.96721 -5.46449,-2.95082 -3.16939,-4.69945 -3.93443,-5.2459 -0.98361,-3.93443 -0.21858,-5.57377 0.76503,-3.82514 1.85792,-3.71584 3.1694,-3.27869 -4.10916,-4.07582 -1.49724,-7.23666 -3.61833,-6.86235 -0.62385,-6.36327 0.12477,-2.24586 -7.23666,0.49908 -7.4862,0.74862 -8.23482,7.4862 -4.24217,4.9908 -4.24218,6.98712 -0.37431,1.12293 1.49724,6.86234 2.24586,7.86051 1.2477,6.36327 0.24954,3.86787 -2.99448,5.36511 -2.62017,2.86971 -5.11557,0.24954 -1.49724,-0.37431 -0.62385,-0.74862 2.24586,-2.37063 0.62385,-2.74494 -0.74862,-3.86787 -1.74678,-4.9908 -2.24586,-3.36879 -2.86971,-2.99448 -2.74494,3.7431 -1.37247,4.11741 -0.37431,4.9908 0.74862,4.11741 2.99448,5.11557 0.74862,1.12293 -10.97976,-5.24034 -3.36879,-4.11741 -2.4954,-6.36327 -0.49908,-3.7431 -0.12477,-2.62017 -2.62016,0.99816 -1.74678,3.86787 -0.99816,2.4954 v 3.36879 l 0.74862,3.7431 0.99816,4.36695 1.622,2.86971 3.24402,2.74494 -6.11372,-0.49908 -6.86235,-5.24034 -3.24402,-2.74494 -2.4954,-3.49356 1.12293,-9.73206 2.4954,-5.36511 2.24586,-4.61649 2.4954,-3.36878 0.87339,-2.74494 -3.24402,-8.23482 -5.11557,-7.4862 -4.36695,-6.36327 -5.48988,-7.11189 -5.98896,-7.98527 -7.36143,-5.24034 -8.98343,-7.61097 -10.48068,-12.97608 -6.36327,-8.11004 -8.35959,-21.70998 -3.36879,-14.84763 -2.74493,-14.22377 -0.37431,-6.86235 -0.37431,-5.98896 -0.37431,-1.12293 -6.2385,3.86787 -10.73022,3.99264 -15.721015,1.87155 -12.10268,-0.37431 -16.46964,-3.99264 -15.84578,-6.11373 -15.1369,-9.25225 -8.07123,-6.28452 -2.83361,-3.91308 -1.07947,-2.96854 -0.13493,-1.2144 3.10347,0.67467 -3.2384,-4.99255 -4.99255,-8.50082 -4.1829403,-6.61175 -3.64321,-5.80214 L 4.663086e-6,270.65018 0.26987466,268.22138 l 0.26986,-1.61921 2.29388004,-0.4048 1.75413,0.13494 2.15894,0.26986 1.34934,0.26987 4.5877403,3.23841 1.34934,0.8096 0.67467,-1.34934 0.53973,-0.26986 0.13494,-3.37334 0.53973,-1.61921 2.29387,-0.53973 2.29388,0.94453 5.39734,2.96854 1.48427,3.10348 0.8096,1.6192 0.67467,2.83361 1.61921,1.48427 4.45281,1.21141 h 1.88907 l 0.94453,-0.80661 -0.94453,-2.29387 0.67467,-1.61921 2.15893,-2.15894 2.83361,-2.15893 3.77814,-1.21441 h 2.02401 l 3.10347,0.53974 2.56374,1.34933 3.50828,1.48427 1.34933,1.48427 6.34189,2.15894 7.55628,0.67467 11.46936,-1.75414 11.33443,-2.024 9.445345,-2.02401 6.47682,-4.99254 14.0331,-11.73923 10.12002,-12.00909 8.50082,-10.65976 1.48427,-1.61921 -2.69867,-10.12002 -1.07947,-11.33443 -2.15894,-12.41389 -1.34933,-19.16058 2.4288,-24.69286 z"
     id="body"
     style="fill:#000000;stroke:none" />
  <path
     id="eye_left"
     style="fill:#ffffff;stroke:none;stroke-width:0.999357"
     d="m 200.33688,145.05263 a 24.141517,28.159554 53.048038 0 1 -37.82972,3.69815 24.141517,28.159554 53.048038 0 1 1.71731,-36.10863 24.141517,28.159554 53.048038 0 1 37.82971,-3.69815 24.141517,28.159554 53.048038 0 1 -1.7173,36.10863 z" />
  <path
     id="pupil_left"
     d="m 196.82465,144.5879 a 20.311804,23.612819 53.033416 0 1 -31.41375,-0.26444 20.311804,23.612819 53.033416 0 1 4.84145,-30.49485 20.311804,23.612819 53.033416 0 1 31.41376,0.26444 20.311804,23.612819 53.033416 0 1 -4.84146,30.49485 z"
     style="fill:#000000;stroke:none;stroke-width:0.999924" />
  <path
     id="eye_right"
     style="fill:#ffffff;stroke:none;stroke-width:0.988515"
     d="m 344.47824,135.79218 a 29.457213,23.121239 53.622669 0 1 -19.77113,26.74319 29.457213,23.121239 53.622669 0 1 -30.21025,-28.03363 29.457213,23.121239 53.622669 0 1 19.77115,-26.74317 29.457213,23.121239 53.622669 0 1 30.21023,28.03361 z" />
  <path
     id="pupil_right"
     d="m 337.26321,134.70268 a 22.362962,16.284389 62.320528 0 1 -11.65071,22.11187 22.362962,16.284389 62.320528 0 1 -22.27123,-20.24562 22.362962,16.284389 62.320528 0 1 11.6507,-22.11188 22.362962,16.284389 62.320528 0 1 22.27124,20.24563 z"
     style="fill:#000000;stroke:none;stroke-width:0.990893" />
  <path
     style="fill:#ffffff;stroke:none"
     d="m 232.51814,164.95701 c 2.31209,-2.69742 9.8243,-11.96648 15.20754,-18.75805 0.56682,-0.7151 1.29922,-1.60365 2.0642,-2.1011 0.62918,-0.40915 1.41394,-0.42864 2.19244,-0.51247 0.73516,-0.0792 1.56269,-0.0502 2.19243,0.3373 0.82373,0.50685 1.85187,2.27839 1.85187,2.27839 l 16.01066,21.2681 c 0,0 4.79182,6.47707 4.90828,7.40542 0.0664,0.52916 -0.637,1.62874 -1.16749,1.68322 -13.85075,1.42251 -45.9473,0.0917 -49.34321,-0.45257 -3.39591,-0.54448 -1.55695,-2.27512 -1.55695,-2.27512 0,0 6.16225,-7.40583 7.64023,-8.87312 z"
     id="beak" />
  <path
     id="belly"
     style="fill:#ffffff;stroke:none"
     d="m 352.13156,364.45002 c 0,23.19516 -9.43505,39.54322 -26.67774,53.09328 -17.24269,13.55005 -41.69287,21.30132 -70.5228,21.30132 -28.82993,0 -56.731,-5.35064 -76.22428,-19.50085 -19.49327,-14.15022 -32.97939,-33.49906 -32.97939,-56.69422 -1e-5,-23.19516 23.68876,-44.79459 42.58188,-59.99508 18.89312,-15.20049 26.38889,-15.59984 55.21882,-15.59984 28.82994,0 51.3296,2.79998 70.22273,18.00046 18.89312,15.20049 38.38078,36.19977 38.38078,59.39493 z" />
</svg>
